# Blender 4.4.3
# www.blender.org
o Link2
v 0.001391 0.0179 -0.003432
v 0.000877 0.018 -0.003543
v 0.000901 0.0179 -0.00364
v 0.000132 0.0179 -0.003705
v 0.000135 0.0001 -0.003748
v 0.001409 0.0001 -0.003475
v 0.002446 -0 -0.002709
v 0.002513 0.0001 -0.002784
v 0.001371 -0 -0.003383
v 0.001991 0.0179 -0.003178
v 0.001938 0.018 -0.003093
v -0.000272 0.018 -0.00364
v 0.000289 0.018 -0.000957
v 0.000289 -0 -0.000957
v 0.000132 -0 -0.003648
v -0.001154 0.0001 -0.003568
v -0.000279 0.0179 -0.00374
v 0.002482 0.0179 -0.002749
v -0.000229 -0 -0.000974
v -0.001124 -0 -0.003473
v 0.002806 0.018 -0.002335
v 0.000729 0.018 -0.000685
v -0.001146 0.0179 -0.003534
v -0.001393 0.018 -0.003374
v -0.000229 0.018 -0.000974
v 0.003225 -0 -0.00171
v 0.003313 0.0001 -0.001756
v 0.002883 0.0179 -0.002398
v 0.000729 -0 -0.000685
v 0.003394 0.018 -0.001343
v 0.003276 0.0179 -0.001735
v -0.002305 0.0001 -0.002958
v -0.001431 0.0179 -0.003466
v 0.000974 0.018 -0.000229
v -0.000685 -0 -0.000729
v -0.002244 -0 -0.002879
v -0.002293 0.0179 -0.002938
v -0.002376 0.018 -0.002771
v -0.000685 0.018 -0.000729
v 0.003615 -0 -0.000504
v 0.003714 0.0001 -0.000517
v 0.003487 0.0179 -0.00138
v 0.000974 -0 -0.000229
v 0.003643 0.018 -0.000218
v 0.00368 0.0179 -0.00051
v -0.003178 0.0001 -0.001991
v -0.002441 0.0179 -0.002847
v -0.003093 -0 -0.001938
v -0.003178 0.0179 -0.001991
v -0.003121 0.018 -0.001892
v 0.003569 -0 0.000763
v 0.003667 0.0001 0.000784
v 0.003743 0.0179 -0.000224
v 0.00353 0.018 0.000929
v 0.003644 0.0179 0.000782
v 0.000957 0.018 0.000289
v -0.003207 0.0179 -0.001944
v -0.003653 0.0001 -0.000847
v -0.000957 -0 -0.000289
v -0.003556 -0 -0.000825
v -0.003556 0.018 -0.000825
v -0.003653 0.0179 -0.000847
v -0.000957 0.018 -0.000289
v 0.000957 -0 0.000289
v 0.003093 -0 0.001938
v 0.003178 0.0001 0.001991
v 0.003627 0.0179 0.000954
v 0.003178 0.0179 0.001991
v 0.003064 0.018 0.001983
v 0.000685 -0 0.000729
v 0.000685 0.018 0.000729
v -0.004068 0.018 0.000769
v -0.000974 0.018 0.000229
v -0.000974 -0 0.000229
v -0.00416 0.0179 0.00073
v -0.004068 -0 0.000769
v -0.00416 0.0001 0.00073
v 0.000229 -0 0.000974
v 0.000229 0.018 0.000974
v 0.002293 0.018 0.00284
v -0.004836 0.018 0.002256
v -0.000729 0.018 0.000685
v 0.002293 -0 0.00284
v 0.001082 -0 0.003996
v -0.000729 -0 0.000685
v -0.000289 -0 0.000957
v -0.000289 0.018 0.000957
v 0.001082 0.018 0.003996
v -0.021241 0.018 0.034529
v -0.021806 0.018 0.034174
v -0.022379 0.018 0.030255
v 7.9e-05 -0 0.005335
v -0.004836 -0 0.002256
v -0.021806 -0 0.034174
v 0.003148 0.0179 0.002038
v 0.002356 0.0001 0.002918
v 7.9e-05 0.018 0.005335
v -0.017464 0.018 0.033335
v -0.020885 0.018 0.035094
v -0.021241 -0 0.034529
v -0.017464 -0 0.033335
v 0.002356 0.0179 0.002918
v -0.00492 0.0179 0.002203
v -0.00492 0.0001 0.002203
v 0.001157 0.0001 0.004062
v 0.001157 0.0179 0.004062
v 0.000164 0.0001 0.005388
v -0.022464 0.0179 0.030202
v -0.020329 0.015399 0.026795
v -0.020038 0.01485 0.02633
v -0.020727 0.0156 0.027431
v -0.017276 0.0105 0.021923
v -0.007055 0.0105 0.00561
v -0.006657 0.010299 0.004975
v -0.006366 0.00975 0.004509
v -0.006259 0.009 0.004339
v -0.022379 -0 0.030255
v -0.022464 0.0001 0.030202
v -0.006657 0.007701 0.004975
v -0.007055 0.0075 0.00561
v -0.006366 0.00825 0.004509
v -0.020329 0.002601 0.026795
v -0.020038 0.00315 0.02633
v 0.000164 0.0179 0.005388
v -0.02247 -0 0.034101
v -0.01738 0.0179 0.033388
v -0.001174 0.009 0.007525
v -0.001281 0.00975 0.007695
v -0.001573 0.010299 0.00816
v -0.001971 0.0105 0.008796
v -0.014953 0.01485 0.029516
v -0.015245 0.015399 0.029981
v -0.01738 0.0001 0.033388
v -0.001573 0.007701 0.00816
v -0.001281 0.00825 0.007695
v -0.015643 0.0024 0.030616
v -0.015245 0.002601 0.029981
v -0.012192 0.0075 0.025108
v -0.001971 0.0075 0.008796
v -0.012192 0.0105 0.025108
v -0.017276 0.0075 0.021923
v -0.017674 0.010299 0.022558
v -0.01259 0.010299 0.025744
v -0.017674 0.007701 0.022558
v -0.017966 0.00975 0.023023
v -0.012881 0.00975 0.026209
v -0.019931 0.0039 0.02616
v -0.017966 0.00825 0.023023
v -0.01259 0.007701 0.025744
v -0.019931 0.0141 0.02616
v -0.018073 0.009 0.023194
v -0.012988 0.009 0.026379
v -0.012881 0.00825 0.026209
v -0.014953 0.00315 0.029516
v -0.014846 0.0141 0.029345
v -0.014846 0.0039 0.029345
v -0.015643 0.0156 0.030616
v -0.020727 0.0024 0.027431
v -0.022464 0.0156 0.030202
v -0.021806 0.0156 0.034174
v -0.02247 0.0156 0.034101
v -0.022464 0.0024 0.030202
v -0.021806 0.0024 0.034174
v -0.021241 0.0024 0.034529
v -0.021241 0.0156 0.034529
v -0.01738 0.0156 0.033388
v -0.020885 0.0024 0.035094
v -0.01738 0.0024 0.033388
v -0.023457 0.0179 0.031529
v -0.023457 0.0156 0.031529
v -0.023457 0.0001 0.031529
v -0.023457 0.0024 0.031529
v -0.02247 0.0024 0.034101
v -0.023382 -0 0.031595
v -0.023382 0.018 0.031595
v -0.02247 0.018 0.034101
v -0.018232 0.018 0.034822
v -0.020885 -0 0.035094
v -0.018232 -0 0.034822
v -0.01814 0.0001 0.03486
v -0.024656 0.0179 0.032673
v -0.024656 0.0156 0.032673
v -0.0231 0.0156 0.034322
v -0.024656 0.0001 0.032673
v -0.024656 0.0024 0.032673
v -0.024593 -0 0.032751
v -0.01814 0.0179 0.03486
v -0.020885 0.0156 0.035094
v -0.01814 0.0156 0.03486
v -0.01814 0.0024 0.03486
v -0.024593 0.018 0.032751
v -0.0231 -0 0.034322
v -0.025478 0.0179 0.0336
v -0.025393 0.018 0.033653
v -0.025478 0.0156 0.0336
v -0.023571 0.0156 0.034794
v -0.025478 0.0024 0.0336
v -0.0231 0.0024 0.034322
v -0.025478 0.0001 0.0336
v -0.0231 0.018 0.034322
v -0.025393 -0 0.033653
v -0.023571 -0 0.034794
v -0.018744 0.018 0.036416
v -0.020809 0.018 0.035757
v -0.018744 -0 0.036416
v -0.018647 0.0001 0.036438
v -0.018647 0.0179 0.036438
v -0.018647 0.0156 0.036438
v -0.018647 0.0024 0.036438
v -0.020809 0.0024 0.035757
v -0.025869 0.018 0.034828
v -0.025967 0.0179 0.034807
v -0.023799 0.0156 0.035537
v -0.025967 0.0156 0.034807
v -0.023571 0.0024 0.034794
v -0.025967 0.0024 0.034807
v -0.025967 0.0001 0.034807
v -0.023571 0.018 0.034794
v -0.025869 -0 0.034828
v -0.020809 0.0156 0.035757
v -0.020809 -0 0.035757
v -0.023799 0.018 0.035537
v -0.023799 0.0024 0.035537
v -0.023799 -0 0.035537
v -0.021029 0.018 0.036387
v -0.021029 0.0156 0.036387
v -0.019122 0.0156 0.037582
v -0.021029 0.0024 0.036387
v -0.021029 -0 0.036387
v -0.019207 -0 0.037529
v -0.019122 0.0179 0.037582
v -0.019122 0.0024 0.037582
v -0.019122 0.0001 0.037582
v -0.019207 0.018 0.037529
v -0.025915 0.018 0.036094
v -0.025915 -0 0.036094
v -0.026014 0.0001 0.036108
v -0.026014 0.0179 0.036108
v -0.026014 0.0156 0.036108
v -0.026014 0.0024 0.036108
v -0.023625 0.018 0.036293
v -0.023625 0.0156 0.036293
v -0.023625 0.0024 0.036293
v -0.023625 -0 0.036293
v -0.021597 0.0156 0.036916
v -0.021597 0.018 0.036916
v -0.020056 0.018 0.03847
v -0.019995 0.0156 0.038549
v -0.021597 -0 0.036916
v -0.021597 0.0024 0.036916
v -0.019995 0.0024 0.038549
v -0.020056 -0 0.03847
v -0.019995 0.0179 0.038549
v -0.019995 0.0001 0.038549
v -0.023096 0.018 0.036862
v -0.024746 0.018 0.0383
v -0.025525 0.018 0.037301
v -0.023096 0.0156 0.036862
v -0.025613 0.0156 0.037347
v -0.023096 0.0024 0.036862
v -0.024813 0.0024 0.038375
v -0.025613 0.0024 0.037347
v -0.024746 -0 0.0383
v -0.023096 -0 0.036862
v -0.025525 -0 0.037301
v -0.022354 0.0156 0.03709
v -0.022354 0.018 0.03709
v -0.021176 0.018 0.039064
v -0.022435 0.0156 0.039338
v -0.021146 0.0156 0.039159
v -0.022354 -0 0.03709
v -0.022354 0.0024 0.03709
v -0.021146 0.0024 0.039159
v -0.022432 -0 0.039238
v -0.021176 -0 0.039064
v -0.023671 0.018 0.038973
v -0.024813 0.0156 0.038375
v -0.023709 0.0156 0.039066
v -0.023709 0.0024 0.039066
v -0.023671 -0 0.038973
v -0.022432 0.018 0.039238
v -0.022435 0.0024 0.039338
v -0.025613 0.0001 0.037347
v -0.025613 0.0179 0.037347
v -0.021146 0.0179 0.039159
v -0.021146 0.0001 0.039159
v -0.024813 0.0001 0.038375
v -0.024813 0.0179 0.038375
v -0.022435 0.0179 0.039338
v -0.022435 0.0001 0.039338
v -0.023709 0.0001 0.039066
v -0.023709 0.0179 0.039066
vn 0.2779 0.7026 -0.6551
vn 0.0598 0.7026 -0.7091
vn 0.084 0.0024 -0.9965
vn 0.2091 -0.0031 -0.9779
vn 0.3905 0.0026 -0.9206
vn 0.3783 -0.7017 -0.6038
vn 0.149 -0.7017 -0.6968
vn 0.5309 -0.0032 -0.8474
vn 0.0598 0.7026 -0.709
vn 0 1 -0
vn 0 -1 -0
vn 0.149 -0.7017 -0.6967
vn -0.0983 -0.7017 -0.7057
vn -0.138 -0.0028 -0.9904
vn 0.4683 0.7026 -0.5358
vn 0.6581 0.0026 -0.7529
vn -0.1643 0.7026 -0.6923
vn -0.2309 0.002 -0.973
vn 0.562 -0.7017 -0.438
vn 0.7888 -0.0031 -0.6147
vn 0.612 0.7026 -0.363
vn 0.612 0.7026 -0.3631
vn 0.8601 0.0024 -0.5102
vn -0.3337 -0.7017 -0.6295
vn -0.4684 -0.0022 -0.8835
vn -0.3337 -0.7016 -0.6295
vn -0.372 0.7027 -0.6065
vn -0.5228 0.0013 -0.8525
vn -0.372 0.7026 -0.6066
vn 0.6779 -0.7017 -0.2193
vn 0.9514 -0.0028 -0.3079
vn 0.6947 0.7026 -0.1541
vn 0.9763 0.002 -0.2166
vn -0.5289 -0.7016 -0.4774
vn -0.7423 -0.0015 -0.67
vn -0.5389 0.703 -0.4641
vn -0.7578 -0 -0.6525
vn -0.5205 0.7308 -0.4416
vn 0.712 -0.7017 0.0257
vn 0.9993 -0.0022 0.0361
vn 0.7081 0.7026 0.0702
vn 0.9951 0.0013 0.0986
vn -0.5267 -0 0.85
vn -0.0311 -0 0.9995
vn -0.6019 0.7071 -0.3711
vn -0.9234 -0 -0.3837
vn -0.8512 -0.011 -0.5248
vn -0.6575 -0.7022 -0.2732
vn -0.6591 0.7026 -0.2682
vn -0.9262 -0 -0.3769
vn -0.8812 -0 0.4728
vn 0.4728 -0 0.8812
vn -0.9995 -0 -0.0311
vn 0.85 -0 0.5267
vn 0.6603 -0.7016 0.2677
vn 0.6603 -0.7017 0.2677
vn 0.9267 -0.0015 0.3757
vn 0.6526 0.7031 0.2825
vn 0.9177 -0 0.3973
vn 0.6244 0.7308 0.2758
vn -0.85 -0 -0.5267
vn 0.9995 -0 0.0311
vn -0.6744 0.7059 -0.2167
vn -0.6744 -0.7059 -0.2167
vn -0.9521 -0 -0.3059
vn -0.4728 -0 -0.8812
vn 0.8812 -0 -0.4728
vn 0.0311 -0 -0.9995
vn 0.5267 -0 -0.8501
vn 0.5326 -0.7022 0.4725
vn 0.5964 0.7071 0.3798
vn 0.8435 -0 0.5371
vn 0.7481 -0.0005 0.6636
vn 0.5288 0.7026 0.4761
vn 0.7432 -0 0.6691
vn -0.8885 -0 -0.4589
vn -0.6293 0.7059 -0.3251
vn -0.6293 -0.7059 -0.325
vn -0.6293 -0.7059 -0.3251
vn -0.6293 0.7059 -0.325
vn 0.4891 0.7059 0.5123
vn 0.4891 -0.7059 0.5123
vn 0.4891 -0.7059 0.5124
vn 0.4891 0.7059 0.5124
vn 0.6905 -0 0.7233
vn 0.567 0.7059 0.4245
vn 0.567 -0.7059 0.4245
vn -0.5992 0.7071 -0.3755
vn -0.5992 0.7071 -0.3754
vn -0.8474 -0 -0.531
vn -0.8474 -0 -0.5309
vn -0.5992 -0.7071 -0.3754
vn -0.5992 -0.7071 -0.3755
vn 0.8005 -0 0.5993
vn 0.5992 0.7071 0.3755
vn 0.5992 -0.7071 0.3755
vn 0.8474 -0 0.531
vn 0.8474 -0 0.5309
vn -0.5129 0.2588 0.8185
vn -0.5129 -0.2588 0.8185
vn -0.3754 -0.7071 0.5992
vn -0.3754 0.7071 0.5992
vn -0.1374 -0.9659 0.2193
vn -0.1374 0.9659 0.2193
vn 0.1374 -0.9659 -0.2193
vn 0.1374 0.9659 -0.2193
vn 0.3754 -0.7071 -0.5992
vn 0.3754 0.7071 -0.5992
vn 0.5129 -0.2588 -0.8185
vn 0.5129 0.2588 -0.8185
vn -0.531 -0 0.8474
vn -0.567 0.7058 -0.4245
vn -0.8005 -0 -0.5993
vn -0.567 -0.7059 -0.4245
vn -0.567 0.7059 -0.4245
vn 0.6293 0.7059 0.3251
vn 0.6294 -0.7059 0.3251
vn 0.6293 -0.7059 0.3251
vn -0.4891 0.7059 -0.5124
vn -0.6905 -0 -0.7233
vn -0.4891 -0.7059 -0.5124
vn 0.8885 -0 0.4589
vn -0.4891 0.7059 -0.5123
vn -0.7481 -0 -0.6636
vn -0.5326 0.7022 -0.4725
vn -0.5326 -0.7022 -0.4725
vn 0.6744 0.7059 0.2167
vn 0.6744 -0.7059 0.2167
vn 0.6744 -0.7058 0.2167
vn 0.6744 0.7058 0.2167
vn 0.9521 -0 0.3059
vn -0.1107 -0 0.9939
vn -0.5309 -0 0.8474
vn 0.3315 -0 0.9435
vn -0.846 -0 0.5331
vn -0.6603 0.7017 -0.2677
vn -0.9267 -0 -0.3757
vn -0.6603 -0.7017 -0.2677
vn 0.708 -0 0.7062
vn -0.6602 -0.7017 -0.2677
vn -0.9936 -0 0.1132
vn 0.9559 -0 0.2935
vn -0.9443 -0 -0.3291
vn 0.6575 0.7022 0.2732
vn 0.9235 -0 0.3837
vn 0.6574 -0.7022 0.2732
vn 0.6575 -0.7021 0.2732
vn -0.712 0.7017 -0.0257
vn -0.712 -0.7017 -0.0257
vn -0.9993 -0 -0.0361
vn 0.9746 -0 -0.2238
vn -0.6811 -0 -0.7322
vn 0.5289 0.7017 0.4774
vn 0.5289 -0.7017 0.4774
vn 0.7423 -0 0.67
vn 0.7322 -0 -0.6811
vn -0.2238 -0 -0.9746
vn 0.2935 -0 -0.9559
vn -0.6779 0.7017 0.2193
vn -0.6779 -0.7017 0.2193
vn -0.6779 0.7017 0.2194
vn -0.9514 -0 0.3079
vn 0.3337 0.7017 0.6295
vn 0.3338 0.7016 0.6295
vn 0.3337 -0.7017 0.6295
vn 0.4684 -0 0.8835
vn 0.3337 -0.7016 0.6295
vn -0.562 0.7017 0.438
vn -0.562 -0.7017 0.438
vn -0.7888 -0 0.6147
vn 0.0983 0.7017 0.7057
vn 0.0983 0.7016 0.7057
vn 0.0983 -0.7017 0.7057
vn 0.138 -0 0.9904
vn -0.3783 0.7017 0.6038
vn -0.3783 -0.7017 0.6038
vn -0.3783 -0.7016 0.6038
vn -0.3783 0.7016 0.6038
vn -0.149 0.7017 0.6968
vn -0.149 0.7016 0.6968
vn -0.149 -0.7017 0.6968
vn -0.2091 -0 0.9779
vn -0.149 -0.7016 0.6968
s 0
f 3//1 2//1 1//1
f 3//2 4//2 2//2
f 3//3 5//3 4//3
f 3//4 6//4 5//4
f 3//5 1//5 6//5
f 6//6 8//6 7//6
f 6//6 7//6 9//6
f 6//7 9//7 5//7
f 6//5 1//5 10//5
f 6//8 10//8 8//8
f 1//1 11//1 10//1
f 1//1 2//1 11//1
f 2//9 4//9 12//9
f 2//10 13//10 11//10
f 2//10 12//10 13//10
f 9//11 7//11 14//11
f 9//11 14//11 15//11
f 9//12 15//12 5//12
f 5//13 15//13 16//13
f 5//14 16//14 17//14
f 5//3 17//3 4//3
f 10//15 11//15 18//15
f 10//16 18//16 8//16
f 4//9 17//9 12//9
f 15//11 14//11 19//11
f 15//11 19//11 20//11
f 15//13 20//13 16//13
f 11//10 22//10 21//10
f 11//10 13//10 22//10
f 11//15 21//15 18//15
f 17//17 23//17 12//17
f 17//18 16//18 23//18
f 12//17 23//17 24//17
f 12//10 25//10 13//10
f 12//10 24//10 25//10
f 8//19 27//19 26//19
f 8//19 26//19 7//19
f 8//16 18//16 28//16
f 8//20 28//20 27//20
f 18//15 21//15 28//15
f 7//11 29//11 14//11
f 7//11 26//11 29//11
f 28//21 21//21 30//21
f 28//22 30//22 31//22
f 28//23 31//23 27//23
f 16//24 20//24 32//24
f 16//25 32//25 33//25
f 16//18 33//18 23//18
f 23//17 33//17 24//17
f 21//10 34//10 30//10
f 21//10 22//10 34//10
f 20//11 19//11 35//11
f 20//11 35//11 36//11
f 20//26 36//26 32//26
f 33//27 37//27 24//27
f 33//28 32//28 37//28
f 24//29 37//29 38//29
f 24//10 39//10 25//10
f 24//10 38//10 39//10
f 27//30 41//30 40//30
f 27//30 40//30 26//30
f 27//23 31//23 42//23
f 27//31 42//31 41//31
f 31//21 30//21 42//21
f 26//11 43//11 29//11
f 26//11 40//11 43//11
f 42//32 30//32 44//32
f 42//32 44//32 45//32
f 42//33 45//33 41//33
f 30//10 34//10 44//10
f 32//34 36//34 46//34
f 32//35 46//35 47//35
f 32//28 47//28 37//28
f 37//29 47//29 38//29
f 36//11 35//11 48//11
f 36//34 48//34 46//34
f 47//36 49//36 38//36
f 47//37 46//37 49//37
f 38//38 49//38 50//38
f 38//10 50//10 39//10
f 41//39 52//39 51//39
f 41//39 51//39 40//39
f 41//33 45//33 53//33
f 41//40 53//40 52//40
f 45//32 44//32 53//32
f 40//11 51//11 43//11
f 53//41 44//41 54//41
f 53//41 54//41 55//41
f 53//42 55//42 52//42
f 44//10 56//10 54//10
f 44//10 34//10 56//10
f 13//43 14//43 29//43
f 13//43 29//43 22//43
f 13//44 25//44 14//44
f 14//44 25//44 19//44
f 49//45 57//45 50//45
f 49//46 46//46 58//46
f 49//47 58//47 57//47
f 46//48 48//48 58//48
f 48//11 35//11 59//11
f 48//11 59//11 60//11
f 48//48 60//48 58//48
f 57//49 62//49 61//49
f 57//49 61//49 50//49
f 57//50 58//50 62//50
f 50//10 63//10 39//10
f 50//10 61//10 63//10
f 22//51 29//51 43//51
f 22//51 43//51 34//51
f 25//52 39//52 19//52
f 19//52 39//52 35//52
f 34//53 43//53 64//53
f 34//53 64//53 56//53
f 39//54 63//54 35//54
f 43//11 51//11 64//11
f 35//54 63//54 59//54
f 52//55 66//55 65//55
f 52//56 65//56 51//56
f 52//42 55//42 67//42
f 52//57 67//57 66//57
f 55//41 54//41 67//41
f 51//11 65//11 64//11
f 67//58 54//58 68//58
f 67//59 68//59 66//59
f 54//10 56//10 69//10
f 54//60 69//60 68//60
f 56//61 64//61 70//61
f 56//61 70//61 71//61
f 56//10 71//10 69//10
f 63//10 61//10 72//10
f 63//10 72//10 73//10
f 63//62 73//62 59//62
f 64//11 65//11 70//11
f 59//11 74//11 60//11
f 59//62 73//62 74//62
f 61//63 62//63 75//63
f 61//63 75//63 72//63
f 60//64 76//64 58//64
f 60//11 74//11 76//11
f 62//65 77//65 75//65
f 62//65 58//65 77//65
f 58//64 76//64 77//64
f 71//66 70//66 78//66
f 71//66 78//66 79//66
f 71//10 80//10 69//10
f 71//10 79//10 80//10
f 73//10 72//10 81//10
f 73//10 81//10 82//10
f 73//67 82//67 74//67
f 70//11 65//11 83//11
f 70//11 83//11 84//11
f 70//11 84//11 78//11
f 74//11 85//11 76//11
f 74//67 82//67 85//67
f 79//68 78//68 86//68
f 79//68 86//68 87//68
f 79//10 88//10 80//10
f 79//10 87//10 88//10
f 82//10 90//10 89//10
f 82//10 89//10 87//10
f 82//10 81//10 91//10
f 82//10 91//10 90//10
f 82//69 87//69 85//69
f 78//11 84//11 92//11
f 78//11 92//11 86//11
f 85//11 93//11 76//11
f 85//11 94//11 93//11
f 85//11 86//11 94//11
f 85//69 87//69 86//69
f 65//70 66//70 83//70
f 68//71 69//71 95//71
f 68//72 95//72 66//72
f 66//70 96//70 83//70
f 66//73 95//73 96//73
f 87//10 97//10 88//10
f 87//10 98//10 97//10
f 87//10 89//10 99//10
f 87//10 99//10 98//10
f 86//11 100//11 94//11
f 86//11 92//11 101//11
f 86//11 101//11 100//11
f 69//74 102//74 95//74
f 69//74 80//74 102//74
f 95//75 102//75 96//75
f 75//76 104//76 103//76
f 75//76 77//76 104//76
f 75//77 103//77 72//77
f 77//78 93//78 104//78
f 77//79 76//79 93//79
f 72//80 103//80 81//80
f 80//81 88//81 102//81
f 83//82 96//82 105//82
f 83//83 105//83 84//83
f 102//84 88//84 106//84
f 102//85 106//85 96//85
f 96//85 106//85 105//85
f 88//86 97//86 106//86
f 84//87 105//87 107//87
f 84//87 107//87 92//87
f 103//88 108//88 91//88
f 103//89 91//89 81//89
f 103//90 110//90 109//90
f 103//90 109//90 111//90
f 103//90 111//90 108//90
f 103//90 112//90 110//90
f 103//90 113//90 112//90
f 103//90 114//90 113//90
f 103//91 115//91 114//91
f 103//90 116//90 115//90
f 103//91 104//91 116//91
f 104//92 93//92 117//92
f 104//93 117//93 118//93
f 104//90 120//90 119//90
f 104//90 121//90 116//90
f 104//91 119//91 121//91
f 104//90 118//90 122//90
f 104//90 122//90 123//90
f 104//90 123//90 120//90
f 106//86 97//86 124//86
f 106//94 124//94 105//94
f 105//94 124//94 107//94
f 93//11 94//11 125//11
f 93//11 125//11 117//11
f 97//95 98//95 124//95
f 92//96 107//96 101//96
f 124//95 98//95 126//95
f 124//97 127//97 107//97
f 124//98 128//98 127//98
f 124//97 129//97 128//97
f 124//97 130//97 129//97
f 124//97 131//97 130//97
f 124//97 132//97 131//97
f 124//97 126//97 132//97
f 107//96 133//96 101//96
f 107//97 135//97 134//97
f 107//98 127//98 135//98
f 107//97 137//97 136//97
f 107//97 136//97 133//97
f 107//97 138//97 137//97
f 107//97 139//97 138//97
f 107//97 134//97 139//97
f 116//99 121//99 127//99
f 116//100 127//100 128//100
f 116//100 128//100 115//100
f 115//101 128//101 129//101
f 115//101 129//101 114//101
f 121//102 119//102 135//102
f 121//99 135//99 127//99
f 114//103 129//103 130//103
f 114//103 130//103 113//103
f 119//104 120//104 134//104
f 119//102 134//102 135//102
f 113//11 140//11 112//11
f 113//11 130//11 140//11
f 120//90 123//90 141//90
f 120//10 141//10 139//10
f 120//104 139//104 134//104
f 130//97 131//97 140//97
f 139//10 141//10 138//10
f 112//90 142//90 110//90
f 112//105 140//105 143//105
f 112//105 143//105 142//105
f 141//90 123//90 144//90
f 141//106 144//106 138//106
f 142//91 145//91 110//91
f 142//107 143//107 146//107
f 142//107 146//107 145//107
f 144//91 123//91 147//91
f 144//91 147//91 148//91
f 144//108 148//108 149//108
f 144//106 149//106 138//106
f 145//90 151//90 150//90
f 145//91 150//91 110//91
f 145//109 146//109 152//109
f 145//109 152//109 151//109
f 148//90 147//90 151//90
f 148//110 151//110 153//110
f 148//108 153//108 149//108
f 151//90 147//90 150//90
f 151//110 152//110 153//110
f 140//97 131//97 143//97
f 138//97 149//97 154//97
f 138//97 154//97 137//97
f 143//98 131//98 155//98
f 143//98 155//98 146//98
f 149//98 153//98 154//98
f 146//98 154//98 152//98
f 146//97 155//97 156//97
f 146//98 156//98 154//98
f 153//97 152//97 154//97
f 150//111 156//111 155//111
f 150//111 147//111 156//111
f 150//100 131//100 110//100
f 150//100 155//100 131//100
f 147//99 123//99 156//99
f 110//101 132//101 109//101
f 110//101 131//101 132//101
f 123//99 154//99 156//99
f 123//102 122//102 154//102
f 109//103 157//103 111//103
f 109//103 132//103 157//103
f 122//90 118//90 158//90
f 122//102 137//102 154//102
f 122//104 158//104 137//104
f 111//91 159//91 108//91
f 111//11 157//11 160//11
f 111//11 160//11 161//11
f 111//11 161//11 159//11
f 158//90 118//90 162//90
f 158//10 162//10 163//10
f 158//10 163//10 164//10
f 158//10 164//10 136//10
f 158//104 136//104 137//104
f 132//97 126//97 157//97
f 157//11 166//11 165//11
f 157//11 165//11 160//11
f 157//97 126//97 166//97
f 136//10 164//10 167//10
f 136//10 167//10 168//10
f 136//97 168//97 133//97
f 108//112 169//112 91//112
f 108//113 159//113 170//113
f 108//113 170//113 169//113
f 159//11 161//11 170//11
f 162//113 118//113 171//113
f 162//113 171//113 172//113
f 162//10 173//10 163//10
f 162//10 172//10 173//10
f 118//114 174//114 171//114
f 118//114 117//114 174//114
f 91//115 169//115 175//115
f 91//10 176//10 90//10
f 91//10 175//10 176//10
f 117//11 125//11 174//11
f 98//116 177//116 126//116
f 98//10 99//10 177//10
f 101//11 178//11 100//11
f 101//11 179//11 178//11
f 101//117 133//117 180//117
f 101//118 180//118 179//118
f 169//119 181//119 175//119
f 169//120 170//120 182//120
f 169//120 182//120 181//120
f 170//11 161//11 183//11
f 170//11 183//11 182//11
f 172//120 171//120 184//120
f 172//120 184//120 185//120
f 172//10 185//10 173//10
f 171//121 186//121 184//121
f 171//121 174//121 186//121
f 126//116 177//116 187//116
f 126//122 187//122 166//122
f 166//11 188//11 165//11
f 166//11 189//11 188//11
f 166//122 187//122 189//122
f 168//122 190//122 133//122
f 168//10 167//10 190//10
f 133//122 190//122 180//122
f 175//123 181//123 191//123
f 175//10 191//10 176//10
f 174//11 125//11 192//11
f 174//11 192//11 186//11
f 181//124 182//124 193//124
f 181//125 193//125 194//125
f 181//125 194//125 191//125
f 182//124 195//124 193//124
f 182//11 183//11 196//11
f 182//11 196//11 195//11
f 185//124 184//124 197//124
f 185//10 197//10 198//10
f 185//10 198//10 173//10
f 184//126 186//126 199//126
f 184//124 199//124 197//124
f 191//10 194//10 200//10
f 191//10 200//10 176//10
f 186//126 201//126 199//126
f 186//11 192//11 202//11
f 186//11 202//11 201//11
f 177//127 203//127 187//127
f 177//10 99//10 204//10
f 177//10 204//10 203//10
f 179//11 205//11 178//11
f 179//128 180//128 206//128
f 179//129 206//129 205//129
f 187//130 203//130 207//130
f 187//131 207//131 189//131
f 189//11 208//11 188//11
f 189//131 207//131 208//131
f 190//131 209//131 180//131
f 190//10 167//10 210//10
f 190//10 210//10 209//10
f 180//131 209//131 206//131
f 90//132 176//132 160//132
f 90//111 160//111 165//111
f 90//133 165//133 89//133
f 160//132 176//132 161//132
f 163//132 173//132 94//132
f 163//111 94//111 100//111
f 163//133 100//133 164//133
f 94//132 173//132 125//132
f 176//134 200//134 161//134
f 161//134 200//134 183//134
f 173//134 198//134 125//134
f 125//134 198//134 192//134
f 89//135 165//135 188//135
f 89//135 188//135 99//135
f 164//135 100//135 178//135
f 164//135 178//135 167//135
f 193//136 212//136 211//136
f 193//136 211//136 194//136
f 193//137 195//137 212//137
f 195//11 196//11 213//11
f 195//11 213//11 214//11
f 195//137 214//137 212//137
f 197//10 216//10 215//10
f 197//10 215//10 198//10
f 197//137 199//137 216//137
f 199//138 201//138 217//138
f 199//137 217//137 216//137
f 200//10 194//10 218//10
f 200//139 218//139 183//139
f 183//139 218//139 196//139
f 198//139 215//139 192//139
f 192//139 215//139 202//139
f 194//10 211//10 218//10
f 201//11 202//11 219//11
f 201//140 219//140 217//140
f 99//141 188//141 220//141
f 99//141 220//141 204//141
f 188//11 208//11 220//11
f 167//141 178//141 221//141
f 167//141 221//141 210//141
f 178//11 205//11 221//11
f 218//142 222//142 196//142
f 218//10 211//10 222//10
f 196//142 222//142 213//142
f 215//142 223//142 202//142
f 215//10 216//10 223//10
f 202//11 224//11 219//11
f 202//142 223//142 224//142
f 204//10 225//10 203//10
f 204//143 220//143 226//143
f 204//143 226//143 225//143
f 220//11 227//11 226//11
f 220//11 208//11 227//11
f 210//10 228//10 209//10
f 210//143 221//143 229//143
f 210//143 229//143 228//143
f 221//11 230//11 229//11
f 221//11 205//11 230//11
f 207//144 203//144 231//144
f 207//145 231//145 227//145
f 207//145 227//145 208//145
f 209//10 228//10 232//10
f 209//145 232//145 233//145
f 209//145 233//145 206//145
f 206//146 233//146 230//146
f 206//147 230//147 205//147
f 203//144 234//144 231//144
f 203//10 225//10 234//10
f 211//10 235//10 222//10
f 211//148 212//148 235//148
f 219//11 224//11 236//11
f 219//149 237//149 217//149
f 219//149 236//149 237//149
f 212//148 238//148 235//148
f 212//150 214//150 238//150
f 214//11 213//11 239//11
f 214//150 239//150 238//150
f 216//10 240//10 223//10
f 216//150 217//150 240//150
f 217//150 237//150 240//150
f 222//151 241//151 213//151
f 222//10 235//10 241//10
f 213//151 241//151 242//151
f 213//11 242//11 239//11
f 223//151 243//151 224//151
f 223//10 240//10 243//10
f 224//11 244//11 236//11
f 224//151 243//151 244//151
f 225//152 226//152 245//152
f 225//152 245//152 246//152
f 225//10 246//10 247//10
f 225//10 247//10 234//10
f 226//11 248//11 245//11
f 226//11 227//11 248//11
f 228//152 229//152 249//152
f 228//152 249//152 250//152
f 228//10 250//10 251//10
f 228//10 251//10 232//10
f 229//11 252//11 249//11
f 229//11 230//11 252//11
f 234//153 253//153 231//153
f 234//153 247//153 253//153
f 230//154 233//154 252//154
f 231//155 253//155 248//155
f 231//155 248//155 227//155
f 232//155 251//155 254//155
f 232//155 254//155 233//155
f 233//154 254//154 252//154
f 241//156 255//156 242//156
f 241//10 256//10 255//10
f 241//10 257//10 256//10
f 241//10 235//10 257//10
f 242//156 255//156 258//156
f 242//11 259//11 239//11
f 242//11 258//11 259//11
f 243//156 260//156 244//156
f 243//10 261//10 260//10
f 243//10 262//10 261//10
f 243//10 240//10 262//10
f 244//11 264//11 263//11
f 244//11 265//11 236//11
f 244//11 263//11 265//11
f 244//156 260//156 264//156
f 246//157 245//157 266//157
f 246//157 266//157 267//157
f 246//10 268//10 247//10
f 246//10 267//10 268//10
f 245//11 269//11 266//11
f 245//11 270//11 269//11
f 245//11 248//11 270//11
f 250//157 249//157 271//157
f 250//157 271//157 272//157
f 250//10 273//10 251//10
f 250//10 272//10 273//10
f 249//11 274//11 271//11
f 249//11 275//11 274//11
f 249//11 252//11 275//11
f 255//158 267//158 258//158
f 255//10 276//10 267//10
f 255//10 256//10 276//10
f 258//158 267//158 266//158
f 258//11 277//11 259//11
f 258//11 278//11 277//11
f 258//11 266//11 278//11
f 260//158 272//158 264//158
f 260//10 279//10 272//10
f 260//10 261//10 279//10
f 264//11 280//11 263//11
f 264//11 271//11 280//11
f 264//158 272//158 271//158
f 267//10 281//10 268//10
f 267//10 276//10 281//10
f 266//11 269//11 278//11
f 272//10 282//10 273//10
f 272//10 279//10 282//10
f 271//11 274//11 280//11
f 235//159 238//159 257//159
f 236//160 283//160 237//160
f 236//160 265//160 283//160
f 238//161 284//161 257//161
f 238//162 239//162 284//162
f 239//162 259//162 284//162
f 240//162 237//162 262//162
f 237//162 283//162 262//162
f 247//163 285//163 253//163
f 247//164 268//164 285//164
f 252//165 254//165 275//165
f 253//166 285//166 270//166
f 253//166 270//166 248//166
f 251//166 273//166 286//166
f 251//166 286//166 254//166
f 254//167 286//167 275//167
f 257//168 284//168 256//168
f 265//169 287//169 283//169
f 265//169 263//169 287//169
f 284//168 288//168 256//168
f 284//170 259//170 288//170
f 259//170 277//170 288//170
f 262//170 283//170 261//170
f 283//170 287//170 261//170
f 268//171 289//171 285//171
f 268//172 281//172 289//172
f 275//173 286//173 274//173
f 285//174 289//174 269//174
f 285//174 269//174 270//174
f 273//174 282//174 290//174
f 273//174 290//174 286//174
f 286//173 290//173 274//173
f 256//175 288//175 276//175
f 263//176 291//176 287//176
f 263//177 280//177 291//177
f 288//178 292//178 276//178
f 288//111 277//111 292//111
f 277//133 278//133 292//133
f 261//111 287//111 279//111
f 287//133 291//133 279//133
f 281//179 292//179 289//179
f 281//180 276//180 292//180
f 274//181 290//181 280//181
f 289//182 292//182 278//182
f 289//182 278//182 269//182
f 282//182 279//182 291//182
f 282//182 291//182 290//182
f 290//183 291//183 280//183
