# Blender 4.4.3
# www.blender.org
o Link1
v 0.001391 0.0179 -0.003432
v 0.000877 0.018 -0.003543
v 0.000901 0.0179 -0.00364
v 0.000132 0.0179 -0.003705
v 0.000135 0.0001 -0.003748
v 0.001409 0.0001 -0.003475
v 0.001991 0.0179 -0.003178
v 0.002513 0.0001 -0.002784
v 0.002446 -0 -0.002709
v 0.001371 -0 -0.003383
v 0.001938 0.018 -0.003093
v 0.000289 0.018 -0.000957
v -0.000272 0.018 -0.00364
v 0.000289 -0 -0.000957
v 0.000132 -0 -0.003648
v -0.000279 0.0179 -0.00374
v -0.001154 0.0001 -0.003568
v 0.002482 0.0179 -0.002749
v -0.000229 -0 -0.000974
v -0.001124 -0 -0.003473
v 0.002806 0.018 -0.002335
v 0.000729 0.018 -0.000685
v -0.001146 0.0179 -0.003534
v -0.000229 0.018 -0.000974
v -0.001393 0.018 -0.003374
v 0.002883 0.0179 -0.002398
v 0.003313 0.0001 -0.001756
v 0.003225 -0 -0.00171
v 0.000729 -0 -0.000685
v 0.003394 0.018 -0.001343
v 0.003276 0.0179 -0.001735
v -0.001431 0.0179 -0.003466
v -0.002305 0.0001 -0.002958
v 0.000974 0.018 -0.000229
v -0.000685 -0 -0.000729
v -0.002244 -0 -0.002879
v -0.002293 0.0179 -0.002938
v -0.000685 0.018 -0.000729
v -0.002376 0.018 -0.002771
v 0.003487 0.0179 -0.00138
v 0.003714 0.0001 -0.000517
v 0.003615 -0 -0.000504
v 0.000974 -0 -0.000229
v 0.003643 0.018 -0.000218
v 0.00368 0.0179 -0.00051
v -0.002441 0.0179 -0.002847
v -0.003178 0.0001 -0.001991
v -0.003093 -0 -0.001938
v -0.003178 0.0179 -0.001991
v -0.003121 0.018 -0.001892
v 0.003743 0.0179 -0.000224
v 0.003667 0.0001 0.000784
v 0.003569 -0 0.000763
v 0.00353 0.018 0.000929
v 0.003644 0.0179 0.000782
v 0.000957 0.018 0.000289
v -0.003207 0.0179 -0.001944
v -0.003653 0.0001 -0.000847
v -0.000957 -0 -0.000289
v -0.003556 -0 -0.000825
v -0.003556 0.018 -0.000825
v -0.003653 0.0179 -0.000847
v -0.000957 0.018 -0.000289
v 0.000957 -0 0.000289
v 0.003627 0.0179 0.000954
v 0.003178 0.0001 0.001991
v 0.003093 -0 0.001938
v 0.003178 0.0179 0.001991
v 0.003064 0.018 0.001983
v 0.000685 -0 0.000729
v 0.000685 0.018 0.000729
v -0.004068 0.018 0.000769
v -0.000974 0.018 0.000229
v -0.000974 -0 0.000229
v -0.00416 0.0179 0.00073
v -0.004068 -0 0.000769
v -0.00416 0.0001 0.00073
v 0.000229 -0 0.000974
v 0.000229 0.018 0.000974
v 0.002293 0.018 0.00284
v -0.004836 0.018 0.002256
v -0.000729 0.018 0.000685
v 0.001082 -0 0.003996
v 0.002293 -0 0.00284
v -0.000729 -0 0.000685
v -0.000289 -0 0.000957
v -0.000289 0.018 0.000957
v 0.001082 0.018 0.003996
v -0.021504 0.018 0.03432
v -0.022379 0.018 0.030255
v 7.9e-05 -0 0.005335
v -0.004836 -0 0.002256
v -0.021504 -0 0.03432
v -0.017464 -0 0.033335
v 0.003148 0.0179 0.002038
v 0.002356 0.0001 0.002918
v 7.9e-05 0.018 0.005335
v -0.017464 0.018 0.033335
v 0.002356 0.0179 0.002918
v -0.00492 0.0179 0.002203
v -0.00492 0.0001 0.002203
v 0.001157 0.0001 0.004062
v 0.001157 0.0179 0.004062
v 0.000164 0.0001 0.005388
v -0.022464 0.0179 0.030202
v -0.005728 0.015299 0.003492
v -0.005436 0.01475 0.003026
v -0.018869 0.0155 0.024465
v -0.006126 0.0155 0.004127
v -0.00533 0.014 0.002856
v -0.00533 0.004 0.002856
v -0.005728 0.002701 0.003492
v -0.006126 0.0025 0.004127
v -0.022464 0.0001 0.030202
v -0.005436 0.00325 0.003026
v -0.022379 -0 0.030255
v 0.000164 0.0179 0.005388
v -0.000245 0.014 0.006042
v -0.000352 0.01475 0.006212
v -0.000245 0.004 0.006042
v -0.000644 0.015299 0.006677
v -0.000352 0.00325 0.006212
v -0.001042 0.0155 0.007313
v -0.000644 0.002701 0.006677
v -0.01738 0.0179 0.033388
v -0.01738 0.0001 0.033388
v -0.013785 0.0025 0.02765
v -0.001042 0.0025 0.007313
v -0.013785 0.0155 0.02765
v -0.018869 0.0025 0.024465
v -0.014183 0.015299 0.028286
v -0.019267 0.015299 0.0251
v -0.019267 0.002701 0.0251
v -0.014474 0.01475 0.028751
v -0.019559 0.01475 0.025566
v -0.014183 0.002701 0.028286
v -0.019559 0.00325 0.025566
v -0.014581 0.014 0.028922
v -0.019665 0.014 0.025736
v -0.021922 0.015399 0.029337
v -0.02163 0.01485 0.028872
v -0.021524 0.0141 0.028702
v -0.014474 0.00325 0.028751
v -0.019665 0.004 0.025736
v -0.02163 0.00315 0.028872
v -0.021922 0.002601 0.029337
v -0.014581 0.004 0.028922
v -0.021524 0.0039 0.028702
v -0.016546 0.01485 0.032058
v -0.016838 0.015399 0.032523
v -0.016439 0.0039 0.031887
v -0.016838 0.002601 0.032523
v -0.016546 0.00315 0.032058
v -0.016439 0.0141 0.031887
v -0.02232 0.0156 0.029973
v -0.017236 0.0156 0.033159
v -0.02232 0.0024 0.029973
v -0.022246 0.0156 0.034092
v -0.021504 0.0156 0.03432
v -0.022464 0.0156 0.030202
v -0.017236 0.0024 0.033159
v -0.022464 0.0024 0.030202
v -0.022246 0.0024 0.034092
v -0.020975 0.0024 0.034888
v -0.021504 0.0024 0.03432
v -0.023457 0.0179 0.031529
v -0.023457 0.0156 0.031529
v -0.023457 0.0001 0.031529
v -0.023457 0.0024 0.031529
v -0.023382 -0 0.031595
v -0.023382 0.018 0.031595
v -0.022246 0.018 0.034092
v -0.022246 -0 0.034092
v -0.020975 0.0156 0.034888
v -0.01738 0.0156 0.033388
v -0.01738 0.0024 0.033388
v -0.018232 0.018 0.034822
v -0.020975 0.018 0.034888
v -0.01814 0.0001 0.03486
v -0.018232 -0 0.034822
v -0.020975 -0 0.034888
v -0.024656 0.0179 0.032673
v -0.024656 0.0156 0.032673
v -0.023003 0.0156 0.034266
v -0.024656 0.0001 0.032673
v -0.024656 0.0024 0.032673
v -0.024593 -0 0.032751
v -0.01814 0.0179 0.03486
v -0.01814 0.0156 0.03486
v -0.01814 0.0024 0.03486
v -0.024593 0.018 0.032751
v -0.023003 -0 0.034266
v -0.025478 0.0179 0.0336
v -0.025393 0.018 0.033653
v -0.023571 0.0156 0.034794
v -0.025478 0.0156 0.0336
v -0.025478 0.0024 0.0336
v -0.023003 0.0024 0.034266
v -0.025478 0.0001 0.0336
v -0.023003 0.018 0.034266
v -0.025393 -0 0.033653
v -0.023571 -0 0.034794
v -0.018744 0.018 0.036416
v -0.020801 0.018 0.035645
v -0.018647 0.0001 0.036438
v -0.018744 -0 0.036416
v -0.018647 0.0179 0.036438
v -0.018647 0.0156 0.036438
v -0.018647 0.0024 0.036438
v -0.020801 0.0024 0.035645
v -0.023571 0.018 0.034794
v -0.023571 0.0024 0.034794
v -0.020801 0.0156 0.035645
v -0.020801 -0 0.035645
v -0.025869 0.018 0.034828
v -0.025967 0.0179 0.034807
v -0.023791 0.0156 0.035425
v -0.025967 0.0156 0.034807
v -0.025967 0.0024 0.034807
v -0.025967 0.0001 0.034807
v -0.023791 -0 0.035425
v -0.025869 -0 0.034828
v -0.023791 0.018 0.035425
v -0.023791 0.0024 0.035425
v -0.021029 0.018 0.036387
v -0.021029 0.0156 0.036387
v -0.019122 0.0156 0.037582
v -0.021029 0.0024 0.036387
v -0.021029 -0 0.036387
v -0.019207 -0 0.037529
v -0.019122 0.0179 0.037582
v -0.019122 0.0024 0.037582
v -0.019122 0.0001 0.037582
v -0.019207 0.018 0.037529
v -0.023715 0.018 0.036088
v -0.025915 0.018 0.036094
v -0.023715 0.0156 0.036088
v -0.026014 0.0156 0.036108
v -0.023715 0.0024 0.036088
v -0.026014 0.0024 0.036108
v -0.023715 -0 0.036088
v -0.025915 -0 0.036094
v -0.026014 0.0001 0.036108
v -0.026014 0.0179 0.036108
v -0.0215 0.0156 0.03686
v -0.0215 0.018 0.03686
v -0.019995 0.0156 0.038549
v -0.0215 0.0024 0.03686
v -0.0215 -0 0.03686
v -0.020056 -0 0.03847
v -0.023359 0.018 0.036653
v -0.024746 0.018 0.0383
v -0.025525 0.018 0.037301
v -0.023359 0.0156 0.036653
v -0.025613 0.0156 0.037347
v -0.023359 0.0024 0.036653
v -0.024813 0.0024 0.038375
v -0.025613 0.0024 0.037347
v -0.023359 -0 0.036653
v -0.025525 -0 0.037301
v -0.020056 0.018 0.03847
v -0.019995 0.0179 0.038549
v -0.02213 0.0156 0.037081
v -0.02213 0.018 0.037081
v -0.021176 0.018 0.039064
v -0.021146 0.0156 0.039159
v -0.019995 0.0024 0.038549
v -0.021146 0.0024 0.039159
v -0.02213 0.0024 0.037081
v -0.02213 -0 0.037081
v -0.021176 -0 0.039064
v -0.019995 0.0001 0.038549
v -0.022794 0.018 0.037007
v -0.023671 0.018 0.038973
v -0.022794 0.0156 0.037007
v -0.024813 0.0156 0.038375
v -0.022794 0.0024 0.037007
v -0.023709 0.0024 0.039066
v -0.022794 -0 0.037007
v -0.024746 -0 0.0383
v -0.022432 0.018 0.039238
v -0.023709 0.0156 0.039066
v -0.022435 0.0156 0.039338
v -0.022435 0.0024 0.039338
v -0.023671 -0 0.038973
v -0.022432 -0 0.039238
v -0.025613 0.0001 0.037347
v -0.025613 0.0179 0.037347
v -0.021146 0.0179 0.039159
v -0.021146 0.0001 0.039159
v -0.024813 0.0001 0.038375
v -0.024813 0.0179 0.038375
v -0.022435 0.0179 0.039338
v -0.022435 0.0001 0.039338
v -0.023709 0.0001 0.039066
v -0.023709 0.0179 0.039066
vn 0.2779 0.7026 -0.6551
vn 0.0597 0.7026 -0.709
vn 0.084 0.0024 -0.9965
vn 0.2091 -0.0031 -0.9779
vn 0.3905 0.0026 -0.9206
vn 0.531 -0.0032 -0.8474
vn 0.3783 -0.7017 -0.6038
vn 0.149 -0.7017 -0.6968
vn 0 1 -0
vn 0.0598 0.7026 -0.709
vn 0 -1 -0
vn 0.149 -0.7017 -0.6967
vn -0.138 -0.0028 -0.9904
vn -0.0983 -0.7017 -0.7057
vn 0.4683 0.7026 -0.5358
vn 0.6581 0.0026 -0.7529
vn 0.0598 0.7026 -0.7091
vn -0.1643 0.7026 -0.6923
vn -0.2309 0.002 -0.973
vn 0.7888 -0.0031 -0.6147
vn 0.562 -0.7017 -0.438
vn 0.612 0.7026 -0.3631
vn 0.612 0.7026 -0.363
vn 0.86 0.0024 -0.5102
vn -0.4684 -0.0022 -0.8835
vn -0.3337 -0.7017 -0.6295
vn -0.372 0.7026 -0.6066
vn -0.5228 0.0013 -0.8525
vn 0.8601 0.0024 -0.5102
vn 0.9514 -0.0028 -0.3079
vn 0.6779 -0.7017 -0.2194
vn 0.6947 0.7026 -0.1541
vn 0.9763 0.002 -0.2166
vn -0.7423 -0.0015 -0.67
vn -0.5289 -0.7017 -0.4774
vn -0.5389 0.703 -0.464
vn -0.7578 -0 -0.6525
vn -0.5205 0.7308 -0.4416
vn 0.9993 -0.0022 0.0361
vn 0.7121 -0.7017 0.0257
vn 0.712 -0.7017 0.0257
vn 0.7081 0.7026 0.0702
vn 0.9951 0.0013 0.0986
vn -0.5267 -0 0.85
vn -0.0311 -0 0.9995
vn -0.602 0.7071 -0.3709
vn -0.9235 -0 -0.3837
vn -0.8513 -0.011 -0.5245
vn -0.6575 -0.7022 -0.2732
vn -0.6591 0.7026 -0.2682
vn -0.9262 -0 -0.3769
vn -0.8812 -0 0.4728
vn 0.4728 -0 0.8812
vn -0.9995 -0 -0.0311
vn 0.85 -0 0.5267
vn 0.9951 0.0013 0.0985
vn 0.9267 -0.0015 0.3757
vn 0.6603 -0.7017 0.2677
vn 0.7081 0.7026 0.0701
vn 0.6526 0.7031 0.2825
vn 0.9177 -0 0.3973
vn 0.6244 0.7308 0.2758
vn -0.85 -0 -0.5267
vn 0.9995 -0 0.0311
vn -0.6744 0.7059 -0.2167
vn -0.6744 -0.7059 -0.2167
vn -0.9521 -0 -0.3059
vn -0.4728 -0 -0.8812
vn 0.8812 -0 -0.4728
vn 0.0311 -0 -0.9995
vn 0.5267 -0 -0.8501
vn 0.5326 -0.7022 0.4725
vn 0.5964 0.7071 0.3798
vn 0.8435 -0 0.5371
vn 0.7481 -0.0005 0.6636
vn 0.5288 0.7026 0.4761
vn 0.7432 -0 0.6691
vn -0.6293 0.7059 -0.3251
vn -0.8885 -0 -0.4589
vn -0.6293 -0.7059 -0.325
vn -0.6293 -0.7059 -0.3251
vn 0.4891 0.7059 0.5123
vn 0.4891 -0.7059 0.5123
vn 0.6905 -0 0.7233
vn 0.567 0.7059 0.4245
vn 0.567 -0.7059 0.4245
vn -0.5992 0.7071 -0.3754
vn -0.8474 -0 -0.5309
vn -0.8474 -0 -0.531
vn -0.5992 -0.7071 -0.3754
vn 0.8005 -0 0.5993
vn -0.531 -0 0.8474
vn -0.5129 -0.2588 0.8185
vn -0.5129 0.2588 0.8185
vn -0.3754 -0.7071 0.5992
vn -0.3754 0.7071 0.5992
vn -0.1374 -0.9659 0.2193
vn -0.1374 0.9659 0.2193
vn 0.5992 0.7071 0.3754
vn 0.5992 -0.7071 0.3754
vn 0.8474 -0 0.531
vn 0.8474 -0 0.5309
vn 0.1374 -0.9659 -0.2193
vn 0.1374 0.9659 -0.2193
vn 0.3754 -0.7071 -0.5992
vn 0.3754 0.7071 -0.5992
vn 0.5129 -0.2588 -0.8185
vn 0.5129 0.2588 -0.8185
vn 0.531 -0 -0.8474
vn -0.567 0.7059 -0.4245
vn -0.8005 -0 -0.5993
vn -0.567 -0.7059 -0.4245
vn 0.6293 0.7059 0.325
vn 0.6293 -0.7059 0.325
vn 0.6293 -0.7059 0.3251
vn -0.4891 0.7059 -0.5123
vn -0.6905 -0 -0.7233
vn -0.4891 -0.7059 -0.5123
vn 0.6293 0.7059 0.3251
vn 0.8885 -0 0.4589
vn -0.4891 0.7059 -0.5124
vn -0.7481 -0 -0.6636
vn -0.5326 0.7022 -0.4725
vn -0.5326 -0.7022 -0.4725
vn -0.5326 -0.7022 -0.4724
vn 0.6744 0.7059 0.2167
vn 0.6744 -0.7059 0.2167
vn 0.9521 -0 0.3059
vn 0.2238 -0 0.9746
vn -0.2935 -0 0.9559
vn -0.7322 -0 0.6811
vn 0.6811 -0 0.7322
vn -0.9746 -0 0.2238
vn -0.6603 0.7017 -0.2677
vn -0.9267 -0 -0.3757
vn -0.6603 -0.7017 -0.2677
vn 0.9443 -0 0.3291
vn -0.9559 -0 -0.2935
vn 0.6575 0.7022 0.2732
vn 0.9234 -0 0.3837
vn 0.6575 -0.7022 0.2732
vn 0.9936 -0 -0.1132
vn -0.7121 0.7016 -0.0257
vn -0.712 -0.7017 -0.0257
vn -0.7121 -0.7016 -0.0257
vn -0.712 0.7017 -0.0257
vn -0.9993 -0 -0.0361
vn -0.708 -0 -0.7062
vn 0.846 -0 -0.5331
vn 0.5289 0.7016 0.4774
vn 0.5289 0.7017 0.4774
vn 0.5289 -0.7017 0.4774
vn -0.3315 -0 -0.9435
vn 0.7423 -0 0.67
vn 0.5309 -0 -0.8474
vn 0.1107 -0 -0.9939
vn -0.6779 0.7016 0.2194
vn -0.6779 -0.7017 0.2194
vn -0.6779 0.7017 0.2194
vn -0.9514 -0 0.3079
vn 0.3337 0.7017 0.6295
vn 0.3337 -0.7017 0.6295
vn 0.4684 -0 0.8835
vn -0.562 0.7017 0.438
vn -0.562 -0.7017 0.438
vn -0.7888 -0 0.6147
vn 0.0983 0.7017 0.7057
vn 0.0983 -0.7017 0.7057
vn 0.138 -0 0.9904
vn -0.3783 0.7017 0.6038
vn -0.3783 -0.7017 0.6038
vn -0.149 0.7017 0.6968
vn -0.149 -0.7017 0.6967
vn -0.2091 -0 0.9779
vn -0.149 -0.7017 0.6968
s 0
f 3//1 2//1 1//1
f 3//2 4//2 2//2
f 3//3 5//3 4//3
f 3//4 6//4 5//4
f 3//5 1//5 6//5
f 6//5 1//5 7//5
f 6//6 7//6 8//6
f 6//7 8//7 9//7
f 6//7 9//7 10//7
f 6//8 10//8 5//8
f 1//1 11//1 7//1
f 1//1 2//1 11//1
f 2//9 12//9 11//9
f 2//9 13//9 12//9
f 2//10 4//10 13//10
f 10//11 9//11 14//11
f 10//11 14//11 15//11
f 10//12 15//12 5//12
f 5//13 17//13 16//13
f 5//3 16//3 4//3
f 5//14 15//14 17//14
f 7//15 11//15 18//15
f 7//16 18//16 8//16
f 4//17 16//17 13//17
f 15//11 14//11 19//11
f 15//11 19//11 20//11
f 15//14 20//14 17//14
f 11//9 22//9 21//9
f 11//9 12//9 22//9
f 11//15 21//15 18//15
f 16//18 23//18 13//18
f 16//19 17//19 23//19
f 13//9 24//9 12//9
f 13//9 25//9 24//9
f 13//18 23//18 25//18
f 8//16 18//16 26//16
f 8//20 26//20 27//20
f 8//21 27//21 28//21
f 8//21 28//21 9//21
f 18//15 21//15 26//15
f 9//11 28//11 29//11
f 9//11 29//11 14//11
f 26//22 21//22 30//22
f 26//23 30//23 31//23
f 26//24 31//24 27//24
f 17//25 33//25 32//25
f 17//19 32//19 23//19
f 17//26 20//26 33//26
f 23//18 32//18 25//18
f 21//9 34//9 30//9
f 21//9 22//9 34//9
f 20//11 19//11 35//11
f 20//11 35//11 36//11
f 20//26 36//26 33//26
f 32//27 37//27 25//27
f 32//28 33//28 37//28
f 25//9 38//9 24//9
f 25//9 39//9 38//9
f 25//27 37//27 39//27
f 27//29 31//29 40//29
f 27//30 40//30 41//30
f 27//31 41//31 42//31
f 27//31 42//31 28//31
f 31//23 30//23 40//23
f 28//11 43//11 29//11
f 28//11 42//11 43//11
f 40//32 30//32 44//32
f 40//32 44//32 45//32
f 40//33 45//33 41//33
f 30//9 34//9 44//9
f 33//34 47//34 46//34
f 33//28 46//28 37//28
f 33//35 36//35 47//35
f 37//27 46//27 39//27
f 36//11 35//11 48//11
f 36//35 48//35 47//35
f 46//36 49//36 39//36
f 46//37 47//37 49//37
f 39//9 50//9 38//9
f 39//38 49//38 50//38
f 41//33 45//33 51//33
f 41//39 51//39 52//39
f 41//40 52//40 53//40
f 41//41 53//41 42//41
f 45//32 44//32 51//32
f 42//11 53//11 43//11
f 51//42 44//42 54//42
f 51//42 54//42 55//42
f 51//43 55//43 52//43
f 44//9 56//9 54//9
f 44//9 34//9 56//9
f 12//44 14//44 29//44
f 12//44 29//44 22//44
f 12//45 24//45 14//45
f 14//45 24//45 19//45
f 49//46 57//46 50//46
f 49//47 47//47 58//47
f 49//48 58//48 57//48
f 47//49 48//49 58//49
f 48//11 35//11 59//11
f 48//11 59//11 60//11
f 48//49 60//49 58//49
f 57//50 62//50 61//50
f 57//50 61//50 50//50
f 57//51 58//51 62//51
f 50//9 63//9 38//9
f 50//9 61//9 63//9
f 22//52 29//52 43//52
f 22//52 43//52 34//52
f 24//53 38//53 19//53
f 19//53 38//53 35//53
f 34//54 43//54 64//54
f 34//54 64//54 56//54
f 38//55 63//55 35//55
f 43//11 53//11 64//11
f 35//55 63//55 59//55
f 52//56 55//56 65//56
f 52//57 65//57 66//57
f 52//58 66//58 67//58
f 52//58 67//58 53//58
f 55//59 54//59 65//59
f 53//11 67//11 64//11
f 65//60 54//60 68//60
f 65//61 68//61 66//61
f 54//9 56//9 69//9
f 54//62 69//62 68//62
f 56//63 64//63 70//63
f 56//63 70//63 71//63
f 56//9 71//9 69//9
f 63//9 61//9 72//9
f 63//9 72//9 73//9
f 63//64 73//64 59//64
f 64//11 67//11 70//11
f 59//11 74//11 60//11
f 59//64 73//64 74//64
f 61//65 62//65 75//65
f 61//65 75//65 72//65
f 60//66 76//66 58//66
f 60//11 74//11 76//11
f 62//67 77//67 75//67
f 62//67 58//67 77//67
f 58//66 76//66 77//66
f 71//68 70//68 78//68
f 71//68 78//68 79//68
f 71//9 80//9 69//9
f 71//9 79//9 80//9
f 73//9 72//9 81//9
f 73//9 81//9 82//9
f 73//69 82//69 74//69
f 70//11 83//11 78//11
f 70//11 84//11 83//11
f 70//11 67//11 84//11
f 74//11 85//11 76//11
f 74//69 82//69 85//69
f 79//70 78//70 86//70
f 79//70 86//70 87//70
f 79//9 88//9 80//9
f 79//9 87//9 88//9
f 82//9 89//9 87//9
f 82//9 81//9 90//9
f 82//9 90//9 89//9
f 82//71 87//71 85//71
f 78//11 91//11 86//11
f 78//11 83//11 91//11
f 85//11 92//11 76//11
f 85//11 93//11 92//11
f 85//11 94//11 93//11
f 85//11 86//11 94//11
f 85//71 87//71 86//71
f 67//72 66//72 84//72
f 68//73 69//73 95//73
f 68//74 95//74 66//74
f 66//72 96//72 84//72
f 66//75 95//75 96//75
f 87//9 97//9 88//9
f 87//9 98//9 97//9
f 87//9 89//9 98//9
f 86//11 91//11 94//11
f 69//76 99//76 95//76
f 69//76 80//76 99//76
f 95//77 99//77 96//77
f 75//78 100//78 72//78
f 75//79 101//79 100//79
f 75//79 77//79 101//79
f 77//80 92//80 101//80
f 77//81 76//81 92//81
f 72//78 100//78 81//78
f 80//82 88//82 99//82
f 84//83 96//83 102//83
f 84//83 102//83 83//83
f 99//82 88//82 103//82
f 99//84 103//84 96//84
f 96//84 103//84 102//84
f 88//85 97//85 103//85
f 83//86 102//86 104//86
f 83//86 104//86 91//86
f 100//87 105//87 90//87
f 100//87 90//87 81//87
f 100//88 107//88 106//88
f 100//89 108//89 105//89
f 100//89 109//89 108//89
f 100//89 106//89 109//89
f 100//89 110//89 107//89
f 100//88 111//88 110//88
f 100//88 101//88 111//88
f 101//89 113//89 112//89
f 101//89 114//89 113//89
f 101//89 115//89 111//89
f 101//88 112//88 115//88
f 101//90 92//90 116//90
f 101//90 116//90 114//90
f 103//85 97//85 117//85
f 103//91 117//91 102//91
f 102//91 117//91 104//91
f 92//11 93//11 116//11
f 110//92 111//92 118//92
f 110//93 118//93 119//93
f 110//93 119//93 107//93
f 111//94 115//94 120//94
f 111//92 120//92 118//92
f 107//95 119//95 121//95
f 107//95 121//95 106//95
f 115//96 112//96 122//96
f 115//94 122//94 120//94
f 106//97 121//97 123//97
f 106//97 123//97 109//97
f 112//98 113//98 124//98
f 112//96 124//96 122//96
f 97//99 98//99 117//99
f 91//100 104//100 94//100
f 117//99 98//99 125//99
f 117//101 120//101 104//101
f 117//101 118//101 120//101
f 117//102 119//102 118//102
f 117//101 125//101 123//101
f 117//101 123//101 121//101
f 117//101 121//101 119//101
f 104//101 122//101 124//101
f 104//102 120//102 122//102
f 104//101 127//101 126//101
f 104//101 128//101 127//101
f 104//101 124//101 128//101
f 104//100 126//100 94//100
f 109//11 129//11 108//11
f 109//11 123//11 129//11
f 113//98 128//98 124//98
f 113//9 130//9 128//9
f 113//89 114//89 130//89
f 123//101 125//101 129//101
f 128//9 130//9 127//9
f 108//103 129//103 131//103
f 108//103 131//103 132//103
f 108//89 132//89 105//89
f 130//104 133//104 127//104
f 130//89 114//89 133//89
f 132//105 131//105 134//105
f 132//105 134//105 135//105
f 132//89 135//89 105//89
f 133//106 137//106 136//106
f 133//104 136//104 127//104
f 133//89 114//89 137//89
f 135//107 134//107 138//107
f 135//107 138//107 139//107
f 135//89 140//89 105//89
f 135//89 141//89 140//89
f 135//89 142//89 141//89
f 135//89 139//89 142//89
f 137//108 144//108 143//108
f 137//106 143//106 136//106
f 137//89 145//89 144//89
f 137//89 146//89 145//89
f 137//89 114//89 146//89
f 139//109 138//109 147//109
f 139//109 147//109 144//109
f 139//89 144//89 142//89
f 144//108 147//108 143//108
f 144//89 148//89 142//89
f 144//88 145//88 148//88
f 129//101 150//101 149//101
f 129//101 125//101 150//101
f 129//101 149//101 131//101
f 127//101 136//101 126//101
f 131//101 149//101 134//101
f 136//101 143//101 126//101
f 134//101 149//101 138//101
f 143//101 147//101 151//101
f 143//101 152//101 126//101
f 143//101 153//101 152//101
f 143//101 151//101 153//101
f 138//102 151//102 147//102
f 138//101 154//101 151//101
f 138//101 149//101 154//101
f 142//92 151//92 154//92
f 142//92 148//92 151//92
f 142//93 149//93 141//93
f 142//93 154//93 149//93
f 148//94 145//94 151//94
f 141//95 150//95 140//95
f 141//95 149//95 150//95
f 145//94 153//94 151//94
f 145//96 146//96 153//96
f 140//97 156//97 155//97
f 140//97 150//97 156//97
f 140//88 155//88 105//88
f 146//96 152//96 153//96
f 146//98 157//98 152//98
f 146//89 114//89 157//89
f 155//11 159//11 158//11
f 155//11 156//11 159//11
f 155//11 158//11 160//11
f 155//89 160//89 105//89
f 157//98 161//98 152//98
f 157//89 114//89 162//89
f 157//9 162//9 163//9
f 157//9 164//9 161//9
f 157//9 165//9 164//9
f 157//9 163//9 165//9
f 105//110 166//110 90//110
f 105//111 160//111 167//111
f 105//111 167//111 166//111
f 160//11 158//11 167//11
f 162//111 114//111 168//111
f 162//111 168//111 169//111
f 162//9 169//9 163//9
f 114//112 170//112 168//112
f 114//112 116//112 170//112
f 90//110 166//110 171//110
f 90//9 171//9 172//9
f 90//9 172//9 89//9
f 116//11 173//11 170//11
f 116//11 93//11 173//11
f 150//101 125//101 156//101
f 152//101 161//101 126//101
f 156//11 174//11 159//11
f 156//11 175//11 174//11
f 156//101 125//101 175//101
f 161//101 176//101 126//101
f 161//9 164//9 176//9
f 98//113 177//113 125//113
f 98//9 89//9 178//9
f 98//9 178//9 177//9
f 94//114 126//114 179//114
f 94//115 179//115 180//115
f 94//11 181//11 93//11
f 94//11 180//11 181//11
f 166//116 182//116 171//116
f 166//117 167//117 183//117
f 166//117 183//117 182//117
f 167//11 158//11 184//11
f 167//11 184//11 183//11
f 169//117 168//117 185//117
f 169//117 185//117 186//117
f 169//9 186//9 163//9
f 168//118 187//118 185//118
f 168//118 170//118 187//118
f 125//119 177//119 188//119
f 125//120 188//120 175//120
f 175//11 189//11 174//11
f 175//120 188//120 189//120
f 176//120 190//120 126//120
f 176//9 164//9 190//9
f 126//120 190//120 179//120
f 171//121 182//121 191//121
f 171//9 191//9 172//9
f 170//11 192//11 187//11
f 170//11 173//11 192//11
f 182//122 183//122 193//122
f 182//123 193//123 194//123
f 182//123 194//123 191//123
f 183//11 184//11 195//11
f 183//11 195//11 196//11
f 183//122 196//122 193//122
f 186//122 185//122 197//122
f 186//9 197//9 198//9
f 186//9 198//9 163//9
f 185//122 199//122 197//122
f 185//124 187//124 199//124
f 191//9 194//9 200//9
f 191//9 200//9 172//9
f 187//125 201//125 199//125
f 187//11 202//11 201//11
f 187//11 192//11 202//11
f 177//126 203//126 188//126
f 177//9 178//9 204//9
f 177//9 204//9 203//9
f 180//127 179//127 205//127
f 180//127 205//127 206//127
f 180//11 206//11 181//11
f 188//126 203//126 207//126
f 188//128 207//128 189//128
f 189//11 208//11 174//11
f 189//128 207//128 208//128
f 190//128 209//128 179//128
f 190//9 164//9 210//9
f 190//9 210//9 209//9
f 179//128 209//128 205//128
f 172//129 200//129 158//129
f 172//130 158//130 159//130
f 172//130 159//130 89//130
f 158//129 200//129 184//129
f 163//129 198//129 173//129
f 163//130 173//130 93//130
f 163//130 93//130 165//130
f 173//129 198//129 192//129
f 89//131 159//131 174//131
f 89//131 174//131 178//131
f 165//131 93//131 181//131
f 165//131 181//131 164//131
f 200//9 194//9 211//9
f 200//132 211//132 184//132
f 184//132 211//132 195//132
f 198//9 197//9 212//9
f 198//132 212//132 192//132
f 192//132 212//132 202//132
f 178//133 174//133 213//133
f 178//133 213//133 204//133
f 174//11 208//11 213//11
f 164//133 181//133 214//133
f 164//133 214//133 210//133
f 181//11 206//11 214//11
f 193//134 216//134 215//134
f 193//134 215//134 194//134
f 193//135 196//135 216//135
f 196//11 195//11 217//11
f 196//11 217//11 218//11
f 196//135 218//135 216//135
f 197//9 219//9 212//9
f 197//135 199//135 219//135
f 199//135 220//135 219//135
f 199//136 201//136 220//136
f 194//9 215//9 211//9
f 201//11 202//11 221//11
f 201//11 221//11 222//11
f 201//136 222//136 220//136
f 211//137 223//137 195//137
f 211//9 215//9 223//9
f 195//137 223//137 217//137
f 212//9 219//9 224//9
f 212//137 224//137 202//137
f 202//137 224//137 221//137
f 204//9 225//9 203//9
f 204//138 213//138 226//138
f 204//138 226//138 225//138
f 213//11 227//11 226//11
f 213//11 208//11 227//11
f 210//9 228//9 209//9
f 210//138 214//138 229//138
f 210//138 229//138 228//138
f 214//11 230//11 229//11
f 214//11 206//11 230//11
f 207//139 203//139 231//139
f 207//140 231//140 227//140
f 207//140 227//140 208//140
f 209//9 228//9 232//9
f 209//140 232//140 233//140
f 209//140 233//140 205//140
f 205//141 233//141 230//141
f 205//141 230//141 206//141
f 203//139 234//139 231//139
f 203//9 225//9 234//9
f 223//142 235//142 217//142
f 223//9 236//9 235//9
f 223//9 215//9 236//9
f 217//142 235//142 237//142
f 217//11 238//11 218//11
f 217//11 237//11 238//11
f 224//9 240//9 239//9
f 224//9 219//9 240//9
f 224//142 239//142 221//142
f 221//142 239//142 241//142
f 221//11 242//11 222//11
f 221//11 241//11 242//11
f 215//143 216//143 236//143
f 222//144 243//144 220//144
f 222//145 242//145 243//145
f 216//146 244//146 236//146
f 216//147 218//147 244//147
f 218//147 238//147 244//147
f 219//147 220//147 240//147
f 220//147 243//147 240//147
f 225//148 226//148 245//148
f 225//148 245//148 246//148
f 225//9 246//9 234//9
f 226//11 247//11 245//11
f 226//11 227//11 247//11
f 228//9 248//9 232//9
f 228//148 229//148 249//148
f 228//148 249//148 248//148
f 229//11 250//11 249//11
f 229//11 230//11 250//11
f 235//149 251//149 237//149
f 235//9 252//9 251//9
f 235//9 253//9 252//9
f 235//9 236//9 253//9
f 237//149 251//149 254//149
f 237//11 255//11 238//11
f 237//11 254//11 255//11
f 239//9 257//9 256//9
f 239//9 258//9 257//9
f 239//9 240//9 258//9
f 239//149 256//149 241//149
f 241//149 256//149 259//149
f 241//11 260//11 242//11
f 241//11 259//11 260//11
f 234//9 246//9 261//9
f 234//150 262//150 231//150
f 234//151 261//151 262//151
f 230//152 233//152 250//152
f 246//153 245//153 263//153
f 246//153 263//153 264//153
f 246//9 264//9 265//9
f 246//9 265//9 261//9
f 245//11 266//11 263//11
f 245//11 247//11 266//11
f 248//9 267//9 232//9
f 248//9 268//9 267//9
f 248//9 269//9 268//9
f 248//153 249//153 270//153
f 248//153 270//153 269//153
f 249//11 271//11 270//11
f 249//11 250//11 271//11
f 231//154 262//154 247//154
f 231//154 247//154 227//154
f 232//154 267//154 272//154
f 232//154 272//154 233//154
f 233//152 272//152 250//152
f 251//109 273//109 254//109
f 251//9 274//9 273//9
f 251//9 252//9 274//9
f 254//155 273//155 275//155
f 254//11 276//11 255//11
f 254//11 275//11 276//11
f 256//9 278//9 277//9
f 256//9 257//9 278//9
f 256//109 277//109 259//109
f 259//109 277//109 279//109
f 259//11 280//11 260//11
f 259//11 279//11 280//11
f 264//156 263//156 275//156
f 264//156 275//156 273//156
f 264//9 281//9 265//9
f 264//9 273//9 281//9
f 263//11 282//11 275//11
f 263//11 283//11 282//11
f 263//11 266//11 283//11
f 269//9 284//9 268//9
f 269//9 277//9 284//9
f 269//156 270//156 279//156
f 269//156 279//156 277//156
f 270//11 285//11 279//11
f 270//11 286//11 285//11
f 270//11 271//11 286//11
f 273//9 274//9 281//9
f 275//11 282//11 276//11
f 277//9 278//9 284//9
f 279//11 285//11 280//11
f 236//157 244//157 253//157
f 242//158 287//158 243//158
f 242//158 260//158 287//158
f 244//159 288//159 253//159
f 244//160 238//160 288//160
f 238//160 255//160 288//160
f 240//160 243//160 258//160
f 243//160 287//160 258//160
f 261//161 289//161 262//161
f 261//161 265//161 289//161
f 250//162 272//162 271//162
f 262//163 289//163 266//163
f 262//163 266//163 247//163
f 267//163 268//163 290//163
f 267//163 290//163 272//163
f 272//162 290//162 271//162
f 253//164 288//164 252//164
f 260//165 291//165 287//165
f 260//165 280//165 291//165
f 288//164 292//164 252//164
f 288//166 255//166 292//166
f 255//166 276//166 292//166
f 258//166 287//166 257//166
f 287//166 291//166 257//166
f 265//167 293//167 289//167
f 265//167 281//167 293//167
f 271//168 290//168 286//168
f 289//169 293//169 283//169
f 289//169 283//169 266//169
f 268//169 284//169 294//169
f 268//169 294//169 290//169
f 290//168 294//168 286//168
f 252//170 292//170 274//170
f 280//171 295//171 291//171
f 280//171 285//171 295//171
f 292//170 296//170 274//170
f 292//92 276//92 296//92
f 276//92 282//92 296//92
f 257//92 291//92 278//92
f 291//92 295//92 278//92
f 281//172 296//172 293//172
f 281//172 274//172 296//172
f 286//173 294//173 285//173
f 293//174 296//174 282//174
f 293//174 282//174 283//174
f 284//174 278//174 295//174
f 284//174 295//174 294//174
f 294//175 295//175 285//175
